<svg width="24" height="24" viewBox="0 0 24 24" fill="none" xmlns="http://www.w3.org/2000/svg">
<g id="icon/action/highlight_off_24px">
<g id="icon/action/highlight_off_24px_2">
<path fill-rule="evenodd" clip-rule="evenodd" d="M12 4C7.576 4 4 7.576 4 12C4 16.424 7.576 20 12 20C16.424 20 20 16.424 20 12C20 7.576 16.424 4 12 4ZM13.512 9.35977L12 10.8718L10.488 9.35977C10.3385 9.20997 10.1356 9.12578 9.92398 9.12578C9.71236 9.12578 9.50944 9.20997 9.35998 9.35977C9.04798 9.67177 9.04798 10.1758 9.35998 10.4878L10.872 11.9998L9.35998 13.5118C9.04798 13.8238 9.04798 14.3278 9.35998 14.6398C9.67198 14.9518 10.176 14.9518 10.488 14.6398L12 13.1278L13.512 14.6398C13.824 14.9518 14.328 14.9518 14.64 14.6398C14.952 14.3278 14.952 13.8238 14.64 13.5118L13.128 11.9998L14.64 10.4878C14.952 10.1758 14.952 9.67177 14.64 9.35977C14.328 9.05577 13.816 9.05577 13.512 9.35977ZM5.6 12C5.6 15.528 8.472 18.4 12 18.4C15.528 18.4 18.4 15.528 18.4 12C18.4 8.472 15.528 5.6 12 5.6C8.472 5.6 5.6 8.472 5.6 12Z" fill="black"/>
<path d="M12 10.8718L11.8232 11.0485L12 11.2253L12.1768 11.0485L12 10.8718ZM13.512 9.35977L13.3352 9.18299L13.512 9.35977ZM10.488 9.35977L10.311 9.53635L10.3112 9.53655L10.488 9.35977ZM9.35998 9.35977L9.53675 9.53655L9.53695 9.53635L9.35998 9.35977ZM9.35998 10.4878L9.53675 10.311L9.35998 10.4878ZM10.872 11.9998L11.0488 12.1765L11.2255 11.9998L11.0488 11.823L10.872 11.9998ZM9.35998 14.6398L9.53675 14.463L9.35998 14.6398ZM10.488 14.6398L10.3112 14.463L10.488 14.6398ZM12 13.1278L12.1768 12.951L12 12.7742L11.8232 12.951L12 13.1278ZM13.512 14.6398L13.3352 14.8165L13.512 14.6398ZM14.64 13.5118L14.8168 13.335L14.64 13.5118ZM13.128 11.9998L12.9512 11.823L12.7744 11.9998L12.9512 12.1765L13.128 11.9998ZM14.64 9.35977L14.8168 9.18298L14.8144 9.18071L14.64 9.35977ZM4.25 12C4.25 7.71407 7.71407 4.25 12 4.25V3.75C7.43793 3.75 3.75 7.43793 3.75 12H4.25ZM12 19.75C7.71407 19.75 4.25 16.2859 4.25 12H3.75C3.75 16.5621 7.43793 20.25 12 20.25V19.75ZM19.75 12C19.75 16.2859 16.2859 19.75 12 19.75V20.25C16.5621 20.25 20.25 16.5621 20.25 12H19.75ZM12 4.25C16.2859 4.25 19.75 7.71407 19.75 12H20.25C20.25 7.43793 16.5621 3.75 12 3.75V4.25ZM12.1768 11.0485L13.6888 9.53655L13.3352 9.18299L11.8232 10.695L12.1768 11.0485ZM10.3112 9.53655L11.8232 11.0485L12.1768 10.695L10.6648 9.18299L10.3112 9.53655ZM9.92398 9.37578C10.0692 9.37578 10.2084 9.43355 10.311 9.53635L10.665 9.18319C10.4686 8.98638 10.202 8.87578 9.92398 8.87578V9.37578ZM9.53695 9.53635C9.63952 9.43355 9.77876 9.37578 9.92398 9.37578V8.87578C9.64596 8.87578 9.37937 8.98638 9.183 9.18319L9.53695 9.53635ZM9.53675 10.311C9.32238 10.0966 9.32238 9.75092 9.53675 9.53655L9.1832 9.18299C8.77357 9.59262 8.77357 10.2549 9.1832 10.6645L9.53675 10.311ZM11.0488 11.823L9.53675 10.311L9.1832 10.6645L10.6952 12.1765L11.0488 11.823ZM9.53675 13.6885L11.0488 12.1765L10.6952 11.823L9.1832 13.335L9.53675 13.6885ZM9.53675 14.463C9.32238 14.2486 9.32238 13.9029 9.53675 13.6885L9.1832 13.335C8.77357 13.7446 8.77357 14.4069 9.1832 14.8165L9.53675 14.463ZM10.3112 14.463C10.0968 14.6774 9.75112 14.6774 9.53675 14.463L9.1832 14.8165C9.59283 15.2262 10.2551 15.2262 10.6648 14.8165L10.3112 14.463ZM11.8232 12.951L10.3112 14.463L10.6648 14.8165L12.1768 13.3045L11.8232 12.951ZM13.6888 14.463L12.1768 12.951L11.8232 13.3045L13.3352 14.8165L13.6888 14.463ZM14.4632 14.463C14.2488 14.6774 13.9031 14.6774 13.6888 14.463L13.3352 14.8165C13.7448 15.2262 14.4071 15.2262 14.8168 14.8165L14.4632 14.463ZM14.4632 13.6885C14.6776 13.9029 14.6776 14.2486 14.4632 14.463L14.8168 14.8165C15.2264 14.4069 15.2264 13.7446 14.8168 13.335L14.4632 13.6885ZM12.9512 12.1765L14.4632 13.6885L14.8168 13.335L13.3048 11.823L12.9512 12.1765ZM14.4632 10.311L12.9512 11.823L13.3048 12.1765L14.8168 10.6645L14.4632 10.311ZM14.4632 9.53655C14.6776 9.75092 14.6776 10.0966 14.4632 10.311L14.8168 10.6645C15.2264 10.2549 15.2264 9.59262 14.8168 9.18299L14.4632 9.53655ZM13.6888 9.53655C13.8939 9.33143 14.2493 9.32817 14.4655 9.53883L14.8144 9.18071C14.4066 8.78337 13.7381 8.78011 13.3352 9.18299L13.6888 9.53655ZM12 18.15C8.61007 18.15 5.85 15.3899 5.85 12H5.35C5.35 15.6661 8.33393 18.65 12 18.65V18.15ZM18.15 12C18.15 15.3899 15.3899 18.15 12 18.15V18.65C15.6661 18.65 18.65 15.6661 18.65 12H18.15ZM12 5.85C15.3899 5.85 18.15 8.61007 18.15 12H18.65C18.65 8.33393 15.6661 5.35 12 5.35V5.85ZM5.85 12C5.85 8.61007 8.61007 5.85 12 5.85V5.35C8.33393 5.35 5.35 8.33393 5.35 12H5.85Z" fill="white"/>
</g>
</g>
</svg>
