<svg width="20" height="20" viewBox="0 0 20 20" fill="none" xmlns="http://www.w3.org/2000/svg">
<g id="icon/communication/mail_outline_24px">
<path id="icon/communication/mail_outline_24px_2" fill-rule="evenodd" clip-rule="evenodd" d="M16.6667 3.33331H3.33341C2.41675 3.33331 1.67508 4.08331 1.67508 4.99998L1.66675 15C1.66675 15.9166 2.41675 16.6666 3.33341 16.6666H16.6667C17.5834 16.6666 18.3334 15.9166 18.3334 15V4.99998C18.3334 4.08331 17.5834 3.33331 16.6667 3.33331ZM16.6667 14.1666C16.6667 14.625 16.2917 15 15.8334 15H4.16675C3.70841 15 3.33341 14.625 3.33341 14.1666V6.66665L9.11675 10.2833C9.65841 10.625 10.3417 10.625 10.8834 10.2833L16.6667 6.66665V14.1666ZM3.33341 4.99998L10.0001 9.16665L16.6667 4.99998H3.33341Z" fill="black" fill-opacity="0.54"/>
</g>
</svg>
