<svg width="20" height="20" viewBox="0 0 20 20" fill="none" xmlns="http://www.w3.org/2000/svg">
<g id="icon/action/settings_24px">
<path id="icon/action/settings_24px_2" fill-rule="evenodd" clip-rule="evenodd" d="M16.2518 10C16.2518 10.2833 16.2268 10.55 16.1935 10.8167L17.9518 12.1917C18.1102 12.3167 18.1518 12.5417 18.0518 12.725L16.3852 15.6083C16.3102 15.7417 16.1685 15.8167 16.0268 15.8167C15.9768 15.8167 15.9268 15.8083 15.8768 15.7917L13.8018 14.9583C13.3685 15.2833 12.9018 15.5667 12.3935 15.775L12.0768 17.9833C12.0518 18.1833 11.8768 18.3333 11.6685 18.3333H8.33515C8.12682 18.3333 7.95182 18.1833 7.92682 17.9833L7.61015 15.775C7.10182 15.5667 6.63515 15.2917 6.20182 14.9583L4.12682 15.7917C4.08515 15.8083 4.03515 15.8167 3.98515 15.8167C3.83515 15.8167 3.69349 15.7417 3.61849 15.6083L1.95182 12.725C1.85182 12.5417 1.89349 12.3167 2.05182 12.1917L3.81015 10.8167C3.77682 10.55 3.75182 10.275 3.75182 10C3.75182 9.725 3.77682 9.45 3.81015 9.18333L2.05182 7.80833C1.89349 7.68333 1.84349 7.45833 1.95182 7.275L3.61849 4.39166C3.69349 4.25833 3.83515 4.18333 3.97682 4.18333C4.02682 4.18333 4.07682 4.19166 4.12682 4.20833L6.20182 5.04166C6.63515 4.71666 7.10182 4.43333 7.61015 4.225L7.92682 2.01666C7.95182 1.81666 8.12682 1.66666 8.33515 1.66666H11.6685C11.8768 1.66666 12.0518 1.81666 12.0768 2.01666L12.3935 4.225C12.9018 4.43333 13.3685 4.70833 13.8018 5.04166L15.8768 4.20833C15.9185 4.19166 15.9685 4.18333 16.0185 4.18333C16.1685 4.18333 16.3102 4.25833 16.3852 4.39166L18.0518 7.275C18.1518 7.45833 18.1102 7.68333 17.9518 7.80833L16.1935 9.18333C16.2268 9.45 16.2518 9.71666 16.2518 10ZM14.5852 10C14.5852 9.825 14.5768 9.65 14.5435 9.39166L14.4268 8.45L15.1685 7.86666L16.0602 7.15833L15.4768 6.15L14.4185 6.575L13.5352 6.93333L12.7768 6.35C12.4435 6.1 12.1102 5.90833 11.7518 5.75833L10.8685 5.4L10.7352 4.45833L10.5768 3.33333H9.4185L9.25184 4.45833L9.1185 5.4L8.23517 5.75833C7.8935 5.9 7.55184 6.1 7.1935 6.36666L6.4435 6.93333L5.57684 6.58333L4.5185 6.15833L3.93517 7.16666L4.83517 7.86666L5.57684 8.45L5.46017 9.39166C5.43517 9.64166 5.4185 9.83333 5.4185 10C5.4185 10.1667 5.43517 10.3583 5.46017 10.6167L5.57684 11.5583L4.83517 12.1417L3.93517 12.8417L4.5185 13.85L5.57684 13.425L6.46017 13.0667L7.2185 13.65C7.55184 13.9 7.88517 14.0917 8.24351 14.2417L9.12684 14.6L9.26017 15.5417L9.4185 16.6667H10.5852L10.7518 15.5417L10.8852 14.6L11.7685 14.2417C12.1102 14.1 12.4518 13.9 12.8102 13.6333L13.5602 13.0667L14.4268 13.4167L15.4852 13.8417L16.0685 12.8333L15.1685 12.1333L14.4268 11.55L14.5435 10.6083C14.5685 10.3583 14.5852 10.175 14.5852 10ZM10.0018 6.66666C8.16017 6.66666 6.6685 8.15833 6.6685 10C6.6685 11.8417 8.16017 13.3333 10.0018 13.3333C11.8435 13.3333 13.3352 11.8417 13.3352 10C13.3352 8.15833 11.8435 6.66666 10.0018 6.66666ZM8.33517 10C8.33517 10.9167 9.08517 11.6667 10.0018 11.6667C10.9185 11.6667 11.6685 10.9167 11.6685 10C11.6685 9.08333 10.9185 8.33333 10.0018 8.33333C9.08517 8.33333 8.33517 9.08333 8.33517 10Z" fill="white"/>
</g>
</svg>
