<svg width="24" height="24" viewBox="0 0 24 24" fill="none" xmlns="http://www.w3.org/2000/svg">
<g id="icon/action/settings_power_24px">
<path id="icon/action/settings_power_24px_2" fill-rule="evenodd" clip-rule="evenodd" d="M11.0023 2C11.0023 1.45 11.4523 1 12.0023 1C12.5523 1 13.0023 1.45 13.0023 2V10C13.0023 10.55 12.5523 11 12.0023 11C11.4523 11 11.0023 10.55 11.0023 10V2ZM7.00225 23H9.00225V21H7.00225V23ZM11.0023 21V23H13.0023V21H11.0023ZM15.9423 4.06L15.9223 4.08C15.5123 4.49 15.5623 5.16 16.0023 5.54C17.5123 6.88 18.3323 8.97 17.8823 11.24C17.4223 13.52 15.5923 15.38 13.3223 15.86C9.43225 16.69 6.00225 13.74 6.00225 10C6.00225 8.22 6.78225 6.63 8.01225 5.53C8.44225 5.14 8.48225 4.49 8.08225 4.08L8.06225 4.06C7.69225 3.69 7.10225 3.67 6.70225 4.02C4.69225 5.79 3.58225 8.55 4.14225 11.54C4.73225 14.69 7.25225 17.24 10.4023 17.85C15.5223 18.84 20.0023 14.95 20.0023 10C20.0023 7.62 18.9523 5.48 17.2923 4.01C16.9023 3.67 16.3123 3.69 15.9423 4.06ZM17.0023 21V23H15.0023V21H17.0023Z" fill="black" fill-opacity="0.54"/>
</g>
</svg>
